<svg xmlns="http://www.w3.org/2000/svg" xmlns:xlink="http://www.w3.org/1999/xlink" version="1.1" x="0px" y="0px" viewBox="0 0 10 12.5" enable-background="new 0 0 10 10" xml:space="preserve"><g><g><g><g><path d="M3.3,3.475"/></g></g></g><g><path d="M8.87,7.729c0,0,0.13-0.129,0.069-0.574C8.941,7.146,8.943,7.139,8.945,7.13C8.968,6.327,7.84,5.316,7.738,5.229    L7.339,4.688C7.338,4.686,7.335,4.684,7.333,4.682L6.313,3.646L6.275,3.591l0.041-0.059c0.017-0.024,0.016-0.058-0.004-0.081    L5.715,2.727C5.691,2.698,5.652,2.693,5.624,2.714L5.273,2.965C5.228,2.908,5.048,2.702,4.852,2.682    C4.768,2.671,4.693,2.695,4.627,2.749C4.625,2.751,4.623,2.752,4.621,2.754c-0.024,0.025-0.048,0.077-0.03,0.131    c0.025,0.078,0.118,0.131,0.292,0.161C4.99,3.066,5.056,3.081,5.095,3.093L4.607,3.441c-0.008,0-0.016,0.002-0.024,0.006    C4.178,3.617,3.76,3.639,3.34,3.514c-0.266-0.08-0.448-0.199-0.5-0.234c0.317-1.065,0.034-1.197,0.034-1.197L2.261,2.096    c0,0-0.119,0.135-0.045,0.637c0.049,0.328,0.015,0.502-0.014,0.584C2.189,3.311,2.175,3.309,2.16,3.313    C2.14,3.314,2.122,3.33,2.112,3.35L1.877,3.843l-0.416,0.3c-0.015,0.01-0.024,0.026-0.027,0.045    C1.306,4.292,0.931,5.064,1.078,5.82c0.135,0.688,0.769,0.586,0.769,0.586l1.409-0.133l0.016,0.004    c0.006,0,0.012,0.002,0.018,0.002c0.001,0,0.049-0.002,0.137-0.002c0.251,0,0.928,0.017,1.793,0.168    c0.003,0.002,0.007,0.002,0.01,0.002c0.005,0,0.01-0.002,0.016-0.002c0.046,0.007,0.527,0.078,1.177,0.283    c0.626,0.198,1.538,0.565,2.328,1.189l0.104-0.132c-0.811-0.64-1.742-1.017-2.383-1.22C5.882,6.379,5.435,6.302,5.303,6.283    l0.004-0.049C5.67,6.288,7.367,6.585,8.87,7.729z M4.906,2.914c-0.14-0.025-0.177-0.059-0.185-0.068    C4.756,2.82,4.793,2.811,4.836,2.814c0.082,0.009,0.169,0.07,0.237,0.134C5.029,2.938,4.975,2.927,4.906,2.914z M4.952,3.529    L5.68,2.896L6.162,3.48c-0.005,0.002-0.01,0.004-0.014,0.008c-0.01,0.01-0.279,0.242-0.451,0.414    C5.561,4.038,5.387,4.131,5.034,3.9c-0.1-0.064-0.154-0.133-0.159-0.202C4.868,3.604,4.951,3.529,4.952,3.529z M1.289,4.854    L1.35,4.645c0.008-0.035,0.043-0.053,0.076-0.043c0.032,0.008,0.052,0.043,0.042,0.076l-0.06,0.209    C1.4,4.914,1.376,4.932,1.349,4.932c-0.006,0-0.011,0-0.017-0.002C1.299,4.92,1.28,4.886,1.289,4.854z M1.533,6.141    C1.521,6.152,1.506,6.157,1.491,6.157c-0.017,0-0.033-0.007-0.045-0.019c-0.378-0.396-0.231-0.99-0.225-1.016    C1.23,5.091,1.264,5.07,1.297,5.079C1.33,5.088,1.35,5.121,1.341,5.154C1.34,5.161,1.205,5.71,1.535,6.053    C1.559,6.078,1.559,6.117,1.533,6.141z M1.802,4.533c-0.01,0.001-0.019,0.004-0.026,0.009L1.675,4.427L1.584,4.221L1.97,3.941    c0.01-0.006,0.017-0.016,0.021-0.024l0.204-0.429L2.628,3.88C2.646,3.896,2.671,3.9,2.693,3.895    c0.023-0.008,0.04-0.026,0.046-0.051l0.031-0.15l0.353,0.574c0.009,0.016,0.022,0.025,0.039,0.03l0.155,0.041l0.044,0.043    L1.802,4.533z M1.879,4.661l1.607-0.156l0.156,0.154L2.014,4.816L1.879,4.661z M2.121,4.941l1.646-0.159L3.92,4.932L2.256,5.098    L2.121,4.941z M2.363,5.223l1.682-0.168l0.159,0.156L2.499,5.377L2.363,5.223z M2.606,5.502l1.723-0.168l0.146,0.145L2.736,5.65    L2.606,5.502z M5.168,6.301c-0.84-0.143-1.494-0.158-1.742-0.158c-0.069,0-0.114,0.002-0.133,0.002L3.13,6.105l-0.286-0.33    l1.729-0.172c0.009,0,0.017-0.004,0.024-0.008l0.58,0.571L5.168,6.301z M3.785,4.195l1.107-0.793L4.863,3.428    C4.858,3.434,4.73,3.546,4.741,3.706c0.008,0.114,0.081,0.218,0.22,0.308c0.166,0.109,0.313,0.164,0.446,0.164    c0.14,0,0.266-0.061,0.386-0.18c0.111-0.112,0.271-0.256,0.365-0.339l0.048,0.067C6.208,3.729,6.21,3.732,6.213,3.734l0.012,0.014    c-0.082,0.061-0.377,0.29-0.3,0.516c0.091,0.262,0.456,0.539,0.456,0.539S7.436,5.693,7.285,4.99c0,0-0.033-0.126-0.107-0.274    l0.057,0.058l0.4,0.541c0.004,0.004,0.006,0.009,0.01,0.012c0.012,0.01,0.979,0.859,1.144,1.585    C8.266,6.335,6.314,4.384,3.785,4.195z"/></g><g><g><g><path d="M3.807,6.227"/></g></g></g></g><text x="0" y="25" fill="#000000" font-size="5px" font-weight="bold" font-family="'Helvetica Neue', Helvetica, Arial-Unicode, Arial, Sans-serif">Created by Clément Branger</text><text x="0" y="30" fill="#000000" font-size="5px" font-weight="bold" font-family="'Helvetica Neue', Helvetica, Arial-Unicode, Arial, Sans-serif">from the Noun Project</text></svg>